<?xml version="1.0" encoding="UTF-8"?>
<svg version="1.1" xmlns="http://www.w3.org/2000/svg" width="500" height="500">
<path d="M0 0 C38.4850782 28.37907293 43.96693674 106.61848478 50.55126953 150.07244873 C55.15600576 180.93078753 58.80625343 211.8707402 62.04096985 242.89929199 C62.91227257 251.24063932 63.84975221 259.5726833 64.82470703 267.90246582 C66.43854648 281.71371707 67.94331693 295.53661843 69.40475464 309.36477661 C69.63244541 311.51490764 69.86167928 313.6648759 70.09255981 315.81466675 C70.41540775 318.82648606 70.73196721 321.8389039 71.046875 324.8515625 C71.14352951 325.74381027 71.24018402 326.63605804 71.33976746 327.55534363 C72.91201393 342.83148215 72.91201393 342.83148215 70 346.5625 C69.34 347.036875 68.68 347.51125 68 348 C68.33 348.66 68.66 349.32 69 350 C69.38077795 355.04530788 69.25251444 358.05755826 66 362 C33.72207633 393.17251533 -38.10712943 388.79906203 -79.43521118 388.21192932 C-102.42616174 387.77705118 -125.46161118 385.62325925 -148 381 C-148.92329102 380.81179688 -149.84658203 380.62359375 -150.79785156 380.4296875 C-187.66897624 372.7241233 -187.66897624 372.7241233 -198.375 358.125 C-199.35607605 354.78934142 -198.80974963 352.35467706 -198 349 C-196.68 347.02 -195.36 345.04 -194 343 C-200.93 339.535 -200.93 339.535 -208 336 C-207.24375886 331.46255314 -206.72515196 328.93065254 -204.875 324.9921875 C-204.42390869 324.0228125 -203.97281738 323.0534375 -203.50805664 322.0546875 C-203.01039795 321.00539063 -202.51273926 319.95609375 -202 318.875 C-201.48107178 317.76640625 -200.96214355 316.6578125 -200.42749023 315.515625 C-198.95549066 312.37627119 -197.47636213 309.24045133 -195.99432373 306.10583496 C-194.56897344 303.08714761 -193.1500239 300.06546329 -191.73062134 297.04397583 C-189.84366554 293.0281781 -187.95357354 289.01386005 -186.0625 285 C-185.69842041 284.22718689 -185.33434082 283.45437378 -184.95922852 282.65814209 C-182.93993934 278.37552265 -180.90939565 274.09856295 -178.86651611 269.82714844 C-178.07309851 268.15413657 -177.29897424 266.47201015 -176.52685547 264.7890625 C-175.89287842 263.43941406 -175.89287842 263.43941406 -175.24609375 262.0625 C-174.90118896 261.31097656 -174.55628418 260.55945313 -174.20092773 259.78515625 C-172.64705416 257.47535272 -171.70450721 256.71762461 -169 256 C-166.15917969 256.87451172 -166.15917969 256.87451172 -162.921875 258.4296875 C-161.76171875 258.97753906 -160.6015625 259.52539062 -159.40625 260.08984375 C-158.18733442 260.68455659 -156.96858649 261.27961313 -155.75 261.875 C-154.51631451 262.46368675 -153.28194588 263.05094415 -152.046875 263.63671875 C-149.02422342 265.07720115 -146.00936033 266.53200393 -143 268 C-143.60811523 267.24114502 -144.21623047 266.48229004 -144.84277344 265.70043945 C-166.3653786 238.75821042 -174.08681058 212.24322608 -170.25 177.625 C-166.86339221 150.65144907 -156.53731673 126.05203911 -138 106 C-137.15050781 105.07960938 -136.30101562 104.15921875 -135.42578125 103.2109375 C-119.09825195 86.24261035 -98.32956216 79.39111574 -76 74 C-76.16286499 73.43116592 -76.32572998 72.86233185 -76.49353027 72.27626038 C-78.19463076 66.32608058 -79.87909081 60.3713664 -81.55419922 54.41381836 C-82.18052222 52.19452671 -82.8110014 49.97640346 -83.44580078 47.75952148 C-84.36039238 44.56275824 -85.25968498 41.3620155 -86.15625 38.16015625 C-86.5827887 36.68773216 -86.5827887 36.68773216 -87.01794434 35.18556213 C-88.59027966 29.50507185 -89.89557191 23.91404755 -89 18 C-87.20606332 15.12970131 -86.01736724 13.50868362 -83 12 C-81.01171875 11.76171875 -81.01171875 11.76171875 -78.6875 11.6875 C-77.92824219 11.65011719 -77.16898438 11.61273438 -76.38671875 11.57421875 C-72.75060069 12.22288793 -71.50289845 13.22122296 -69 16 C-67.3839822 19.82278531 -66.28511893 23.75205026 -65.1875 27.75 C-64.87619141 28.82894531 -64.56488281 29.90789062 -64.24414062 31.01953125 C-63.48022485 33.67560763 -62.73290641 36.33523237 -62 39 C-61.21689453 37.51113281 -61.21689453 37.51113281 -60.41796875 35.9921875 C-52.07390403 20.45867956 -41.02159066 1.84907039 -23.08984375 -3.578125 C-14.8562703 -5.24022955 -7.32674194 -4.05096312 0 0 Z M-24 21 C-30.07280197 26.58697781 -35.28603831 33.63502512 -39 41 C-38.67 41.66 -38.34 42.32 -38 43 C-37.31035156 42.50628906 -36.62070312 42.01257813 -35.91015625 41.50390625 C-24.90573811 34.00158003 -24.90573811 34.00158003 -18 35 C-15.07856583 36.76503314 -13.52076183 37.95847635 -12 41 C-11.42353126 48.03291857 -11.42353126 48.03291857 -13.4296875 51.3984375 C-16.99918933 55.01133753 -21.05276985 57.29514426 -25.4375 59.8125 C-27.23335407 60.86670871 -29.02892641 61.92139747 -30.82421875 62.9765625 C-31.70255371 63.48864258 -32.58088867 64.00072266 -33.48583984 64.52832031 C-36.93013761 66.54446199 -40.34605048 68.60413649 -43.75 70.6875 C-44.77609375 71.31011719 -45.8021875 71.93273437 -46.859375 72.57421875 C-47.56578125 73.04472656 -48.2721875 73.51523438 -49 74 C-49 74.33 -49 74.66 -49 75 C-47.99324219 75.07476562 -46.98648438 75.14953125 -45.94921875 75.2265625 C-22.57647946 77.28538863 -0.50832109 85.6956294 15 104 C17.17652181 107.24389924 19.1417003 110.56496115 21 114 C22.33903064 110.2584569 21.67538975 107.4946518 20.8125 103.671875 C20.52947021 102.40867432 20.24644043 101.14547363 19.95483398 99.84399414 C19.63746809 98.47911702 19.31916891 97.11445662 19 95.75 C18.84105255 95.05937469 18.6821051 94.36874939 18.51834106 93.65719604 C13.58072191 72.23195874 8.15657778 50.49879508 -2 30.875 C-2.46200806 29.96899048 -2.46200806 29.96899048 -2.93334961 29.04467773 C-5.43922787 24.41429288 -8.84977148 19.21047531 -13.953125 17.24951172 C-17.8390373 16.77582346 -20.91955187 18.8734247 -24 21 Z M-121 133 C-137.93737454 152.86308763 -141.28692955 177.84678328 -140 203 C-139.15901987 211.72692094 -137.38093574 220.32962445 -133 228 C-132.59136719 228.73347656 -132.18273437 229.46695313 -131.76171875 230.22265625 C-123.67152465 243.508806 -110.33070168 251.77403392 -95.69140625 256.17578125 C-73.52175744 261.12582982 -51.9192114 259.91481319 -29.92456055 255.13476562 C-14.95977841 251.92591694 -14.95977841 251.92591694 -8 253 C-5.10316132 255.2015974 -3.60702769 256.78594462 -2 260 C-1.43649274 264.61891196 -1.5577121 268.09841312 -3.625 272.3125 C-8.41636301 277.73430551 -14.03981577 279.98962146 -20.75 282.125 C-21.5426123 282.38361816 -22.33522461 282.64223633 -23.15185547 282.90869141 C-28.71770567 284.68807858 -34.22455382 286.06847642 -40 287 C-40 287.33 -40 287.66 -40 288 C-34.72 288 -29.44 288 -24 288 C-24 293.94 -24 299.88 -24 306 C-27.43376268 307.71688134 -31.38114365 307.24509002 -35.1640625 307.31640625 C-36.52487442 307.3475779 -36.52487442 307.3475779 -37.91317749 307.37937927 C-40.8170398 307.44487135 -43.72099405 307.50375814 -46.625 307.5625 C-48.59115542 307.60568555 -50.55730147 307.64929985 -52.5234375 307.69335938 C-57.34886362 307.80055239 -62.1743824 307.90182081 -67 308 C-67 311.96 -67 315.92 -67 320 C-66.13761719 320.01458252 -65.27523437 320.02916504 -64.38671875 320.04418945 C-37.09316826 320.55396208 -9.9992381 321.76178982 16.82421875 327.23046875 C19.93391874 327.85186066 22.81417486 328.18816482 26 328 C21.77376693 322.93283072 17.33628658 318.26249594 12.59765625 313.67578125 C11.1992877 312.30462985 9.80151796 310.93286753 8.40429688 309.56054688 C6.2218239 307.42156028 4.03584668 305.28671317 1.83959961 303.16186523 C-0.29409193 301.09444476 -2.41179189 299.01173813 -4.52734375 296.92578125 C-5.52398293 295.9725573 -5.52398293 295.9725573 -6.54075623 295.00007629 C-7.14210892 294.40232895 -7.74346161 293.8045816 -8.36303711 293.1887207 C-8.89787216 292.66800491 -9.43270721 292.14728912 -9.98374939 291.61079407 C-11 290 -11 290 -10.83546448 287.90715027 C-9.45332064 284.75207179 -6.86709532 284.11680197 -3.8125 282.75 C-2.12060547 281.96882813 -2.12060547 281.96882813 -0.39453125 281.171875 C3.17857402 279.93835189 5.26133081 279.55699371 9 280 C11.68139648 281.984375 11.68139648 281.984375 14.37109375 284.75 C14.85651138 285.24153564 15.34192902 285.73307129 15.84205627 286.23950195 C17.38848366 287.81278335 18.91261666 289.40585863 20.4375 291 C21.45763815 292.04168466 22.47911163 293.0820634 23.50195312 294.12109375 C28.35551457 299.0762344 33.07582364 304.12548399 37.59838867 309.38671875 C39.29806211 311.34307514 41.08651493 313.18679013 42.9375 315 C43.52402344 315.5775 44.11054688 316.155 44.71484375 316.75 C45.13894531 317.1625 45.56304687 317.575 46 318 C47.06307943 314.6339247 46.98177306 311.8657979 46.67382812 308.36352539 C46.57596512 307.21716614 46.47810211 306.07080688 46.37727356 304.88970947 C46.26308578 303.63833191 46.14889801 302.38695435 46.03125 301.09765625 C45.91400066 299.76702353 45.79716383 298.43635441 45.68070984 297.10565186 C45.36325574 293.50606877 45.03585505 289.90745587 44.70562363 286.30902481 C44.50020106 284.06469668 44.29733253 281.82015075 44.09512329 279.57553101 C41.03195089 245.64786689 37.25924409 211.79842893 33 178 C31.04653324 181.43980017 30.26344624 184.84725342 29.375 188.6875 C25.58306136 203.71184626 18.73970809 219.07316642 5.5625 227.9375 C-5.75883613 234.59250395 -19.06694945 237.00448449 -32.0390625 234.38671875 C-38.88626346 232.24578953 -42.94955006 228.88461595 -47 223 C-47.33 222.34 -47.66 221.68 -48 221 C-51.10644456 222.38216256 -53.19891506 224.01085765 -55.625 226.375 C-63.68271552 233.59086465 -73.45649344 235.33369448 -83.98828125 235.21875 C-93.94285755 234.49571982 -101.63645588 231.68912739 -108.5625 224.4375 C-116.71582155 214.81983467 -118.19999767 204.76306602 -118.25 192.625 C-118.270625 191.41199219 -118.29125 190.19898438 -118.3125 188.94921875 C-118.38393225 172.21621466 -114.14476395 159.47152156 -103 147 C-103 146.34 -103 145.68 -103 145 C-102.42765625 144.73058594 -101.8553125 144.46117187 -101.265625 144.18359375 C-98.93999607 142.96865312 -96.89146193 141.57615924 -94.75 140.0625 C-84.50109589 133.16258098 -72.2075699 131.21749314 -60.07421875 133.56640625 C-55.67567576 134.81103101 -52.64792985 136.24669988 -49 139 C-48.34 139 -47.68 139 -47 139 C-46.34 137.68 -45.68 136.36 -45 135 C-36.29355568 134.40973259 -28.49175402 136.38445103 -20.61328125 140.13671875 C-18.49195904 142.58676886 -18.60786655 144.52529496 -18.77001953 147.68115234 C-19.18991285 151.91485377 -19.77938565 156.10975116 -20.4375 160.3125 C-22.22175775 171.88029547 -23.2221994 183.28991794 -23.375 195 C-23.41238281 196.11761719 -23.44976562 197.23523438 -23.48828125 198.38671875 C-23.49988281 199.45535156 -23.51148438 200.52398437 -23.5234375 201.625 C-23.54325684 202.58664063 -23.56307617 203.54828125 -23.58349609 204.5390625 C-23.21765387 207.21923056 -23.21765387 207.21923056 -20.67431641 208.828125 C-16.85700691 210.50085511 -14.99119137 210.2176516 -11 209 C-2.60780011 203.94191053 1.78306404 195.16959834 4.140625 185.90234375 C7.88588535 167.70563628 6.37700925 144.85607013 -4 129 C-13.07620037 116.55321962 -26.37952179 110.99770939 -41.125 107.6875 C-71.21646925 103.03418001 -100.07938099 110.39564268 -121 133 Z M-82.32421875 166.859375 C-88.52489945 174.78005804 -90.59186566 183.81454325 -89.77734375 193.703125 C-88.87728189 199.54041942 -87.33056308 202.96470259 -83 207 C-78.91536542 209.78497812 -75.23950899 210.66131516 -70.3671875 210.47265625 C-63.49537059 209.1005608 -58.06787958 203.88860428 -54.21875 198.25390625 C-49.69360505 189.88528882 -48.62381586 179.92679353 -50.46875 170.640625 C-52.08140351 165.5338889 -54.5888124 162.97079981 -59 160 C-67.96511269 156.11511784 -76.15709879 160.35039695 -82.32421875 166.859375 Z M-122 281 C-121.65066406 281.67546875 -121.30132812 282.3509375 -120.94140625 283.046875 C-120.48636719 283.93890625 -120.03132813 284.8309375 -119.5625 285.75 C-119.11003906 286.63171875 -118.65757812 287.5134375 -118.19140625 288.421875 C-114.83087583 295.69384247 -115.45867881 302.8065199 -117.90917969 310.26025391 C-119.0640395 313.16084405 -120.48086337 315.66405734 -122.1171875 318.3203125 C-122.92712158 319.64313232 -122.92712158 319.64313232 -123.75341797 320.99267578 C-124.16479004 321.65509277 -124.57616211 322.31750977 -125 323 C-120.49974683 322.69107974 -115.99985088 322.37722171 -111.5 322.0625 C-110.2315625 321.97548828 -108.963125 321.88847656 -107.65625 321.79882812 C-106.41875 321.71181641 -105.18125 321.62480469 -103.90625 321.53515625 C-102.77509766 321.456604 -101.64394531 321.37805176 -100.47851562 321.29711914 C-96.64196123 320.96941794 -92.82079011 320.47759876 -89 320 C-88.67 309.77 -88.34 299.54 -88 289 C-91.0525 288.4225 -94.105 287.845 -97.25 287.25 C-104.3463742 285.87063001 -111.09165857 284.23536653 -117.8828125 281.734375 C-119.94143705 280.8907636 -119.94143705 280.8907636 -122 281 Z M-161 283 C-161.29132813 283.64324219 -161.58265625 284.28648437 -161.8828125 284.94921875 C-171.67910363 306.54418756 -171.67910363 306.54418756 -176.3125 315.6875 C-178.76719717 320.54501253 -181.21081365 325.4041638 -183.5625 330.3125 C-184.05878906 331.33988281 -184.55507812 332.36726563 -185.06640625 333.42578125 C-186.32401201 336.06250739 -186.32401201 336.06250739 -185 339 C-184.27554688 338.66226563 -183.55109375 338.32453125 -182.8046875 337.9765625 C-177.93300543 335.72909317 -173.15481852 333.53251361 -168 332 C-167.99742187 331.35675781 -167.99484375 330.71351563 -167.9921875 330.05078125 C-167.63518577 321.70884087 -164.81995351 315.34786164 -161 308 C-154.46076343 308.91374509 -154.46076343 308.91374509 -151.55859375 309.45703125 C-147.48676527 310.13941871 -145.44191242 310.19283451 -141.5625 308.5 C-138.34662832 305.36256421 -137.52880011 303.45702951 -137 299 C-138.3057865 294.55530363 -139.36646012 292.0409699 -143.36328125 289.6015625 C-144.66845034 288.920719 -145.98542781 288.26209782 -147.3125 287.625 C-147.96412109 287.28339844 -148.61574219 286.94179688 -149.28710938 286.58984375 C-153.17077455 284.62274207 -156.6216393 283.47517093 -161 283 Z M-115.17919922 327.59912109 C-117.49495982 327.87440086 -119.81174886 328.1391084 -122.12890625 328.40234375 C-130.14490613 329.327811 -138.08524145 330.3967651 -146 332 C-145.91435791 332.57854736 -145.82871582 333.15709473 -145.74047852 333.75317383 C-142.61248196 354.98173114 -142.61248196 354.98173114 -142 364 C-146.5463032 365.5154344 -149.37206823 363.39535318 -153.5625 361.4375 C-154.34302734 361.10169922 -155.12355469 360.76589844 -155.92773438 360.41992188 C-161.59328076 357.79490168 -161.59328076 357.79490168 -163.45703125 354.15234375 C-163.63621094 353.11207031 -163.81539062 352.07179688 -164 351 C-164.20882812 349.86820312 -164.41765625 348.73640625 -164.6328125 347.5703125 C-164.87644531 345.86488281 -164.87644531 345.86488281 -165.125 344.125 C-165.29257813 342.97257812 -165.46015625 341.82015625 -165.6328125 340.6328125 C-165.75398438 339.76398438 -165.87515625 338.89515625 -166 338 C-175.16497892 339.39804763 -185.21817204 343.127779 -191.3125 350.4375 C-191.869375 351.283125 -192.42625 352.12875 -193 353 C-191.89985338 357.67562314 -189.40266241 359.83510017 -185.609375 362.46484375 C-168.94607742 372.26825086 -148.26487937 375.39545559 -129.4375 378.25 C-128.4484668 378.40098145 -127.45943359 378.55196289 -126.44042969 378.70751953 C-107.17155584 381.4264968 -87.88064222 382.33269594 -68.43652344 382.26074219 C-65.00177373 382.25000554 -61.56754676 382.26072713 -58.1328125 382.2734375 C-38.7895883 382.28629645 -19.56520682 381.15900441 -0.4375 378.1875 C0.67399414 378.01718262 1.78548828 377.84686523 2.93066406 377.67138672 C35.87503954 373.40174682 35.87503954 373.40174682 63 356 C62.76716851 352.85078091 62.76716851 352.85078091 62 350 C61.13375 350.350625 60.2675 350.70125 59.375 351.0625 C55.51462149 352.13482736 53.81742061 352.18259622 50 351 C48.42052922 349.52222497 47.1252466 347.92040339 45.76708984 346.23754883 C36.47042114 334.90768288 24.88737246 333.24703425 11 331 C9.19116342 330.67583121 7.3825534 330.35039461 5.57421875 330.0234375 C-5.23623558 328.16535826 -16.04687723 327.38362387 -27 327 C-27.33 331.29 -27.66 335.58 -28 340 C-40.87 340.33 -53.74 340.66 -67 341 C-67.69489656 349.28207681 -67.69489656 349.28207681 -66 357 C-65.17647789 357.0154612 -65.17647789 357.0154612 -64.33631897 357.03123474 C-58.64278719 357.13907947 -52.94942079 357.25369449 -47.25610352 357.37231445 C-45.12885993 357.41573423 -43.0015799 357.45740393 -40.87426758 357.49731445 C-37.82361849 357.55484707 -34.77315411 357.61858967 -31.72265625 357.68359375 C-30.76537125 357.70030624 -29.80808624 357.71701874 -28.8217926 357.73423767 C-27.94095505 357.75418289 -27.06011749 357.77412811 -26.15258789 357.79467773 C-25.37315323 357.81022202 -24.59371857 357.8257663 -23.79066467 357.84178162 C-22 358 -22 358 -21 359 C-20.92680379 361.69654854 -20.90757463 364.36691458 -20.9375 367.0625 C-20.94201172 367.82111328 -20.94652344 368.57972656 -20.95117188 369.36132812 C-20.9629932 371.24091871 -20.98092922 373.12046899 -21 375 C-24.78654642 375.88265039 -28.28295998 376.12156737 -32.16723633 376.11352539 C-33.38812454 376.11344986 -34.60901276 376.11337433 -35.86689758 376.11329651 C-37.17539169 376.10813522 -38.4838858 376.10297394 -39.83203125 376.09765625 C-41.19251961 376.09578961 -42.55300865 376.09436687 -43.91349792 376.09336853 C-47.48255287 376.08956275 -51.05156669 376.07974914 -54.62060547 376.06866455 C-58.26724695 376.05840863 -61.91389511 376.05386197 -65.56054688 376.04882812 C-72.70704801 376.03812503 -79.85352131 376.02107204 -87 376 C-87.73900189 364.48154477 -88.24607135 352.97487592 -88.5625 341.4375 C-88.60588718 339.92512352 -88.64950623 338.41275367 -88.69335938 336.90039062 C-88.79822616 333.26699905 -88.90002408 329.63352985 -89 326 C-97.83588994 325.67479685 -106.42443412 326.55640209 -115.17919922 327.59912109 Z " fill="#000100" transform="translate(298,53)"/>
<path d="M0 0 C0.94875 0.845625 1.8975 1.69125 2.875 2.5625 C5.73170636 5.13036186 5.73170636 5.13036186 8.75 5.6875 C12.16303629 4.96551155 13.66656956 3.94914087 16.5 2 C24.54106107 -3.06466832 33.11088074 -1.79001736 42.02539062 0.1887207 C63.14906173 5.36077968 82.45335549 15.11640998 94.0625 34.25 C97.54549305 40.4154938 99.06801204 46.77052251 100.21875 53.71875 C100.42886719 54.98203125 100.63898438 56.2453125 100.85546875 57.546875 C100.96165527 58.19849609 101.0678418 58.85011719 101.17724609 59.52148438 C101.49482 61.46824604 101.81961653 63.41382505 102.14453125 65.359375 C106.72490763 93.12263798 107.73032768 116.46709654 92.0546875 141.05078125 C84.29821379 151.39797999 74.11355824 156.97476484 61.625 159.75 C42.62525442 161.06032728 42.62525442 161.06032728 34 156 C30.94345119 153.26851273 28.29282759 150.403108 26 147 C26 146.34 26 145.68 26 145 C25.5153125 145.44730469 25.030625 145.89460937 24.53125 146.35546875 C14.20457883 155.66933179 4.08639746 160.74388675 -10.19921875 160.2890625 C-21.82814406 159.08886658 -29.45743956 155.4123112 -37.1015625 146.58203125 C-44.06777539 137.10740836 -45.20306397 128.01872127 -45.25 116.625 C-45.270625 115.41199219 -45.29125 114.19898438 -45.3125 112.94921875 C-45.3680203 99.94358909 -43.07852585 88.9960948 -36 78 C-35.50886719 77.21882813 -35.01773438 76.43765625 -34.51171875 75.6328125 C-27.7987385 66.00476638 -16.69047 58.67815972 -5.16796875 56.453125 C5.18186948 54.97275356 15.66671888 55.31972146 24.625 61.1875 C25.40875 61.785625 26.1925 62.38375 27 63 C27.66 61.35 28.32 59.7 29 58 C37.8604762 57.39928975 46.12496634 59.233089 53.890625 63.640625 C56 66 56 66 56.40234375 69.60546875 C56.08168058 74.53866053 55.32681887 79.43152414 54.5625 84.3125 C52.75983707 95.99962094 51.84737259 107.35307748 51.9375 119.1875 C51.94426758 120.90163086 51.94426758 120.90163086 51.95117188 122.65039062 C51.96281732 125.4336511 51.97917003 128.21679572 52 131 C56.39283872 132.68657961 56.39283872 132.68657961 61 132.4375 C69.34958566 128.43665687 72.69161931 122.49018176 76 114 C81.47849831 96.21154259 79.32727237 74.2973803 71.6875 57.5 C64.15538236 43.89653904 52.47605848 38.38417771 38 34 C18.17486449 28.33147977 -7.80023683 31.14371215 -25.89453125 40.49609375 C-43.80480879 51.18076576 -56.26071678 67.38463059 -61.99609375 87.4921875 C-66.81563219 107.46214103 -68.57076211 133.51914379 -58 152 C-57.57976562 152.74507812 -57.15953125 153.49015625 -56.7265625 154.2578125 C-48.81950944 167.14499842 -35.92832489 174.89502068 -21.69140625 179.17578125 C0.47824256 184.12582982 22.0807886 182.91481319 44.07543945 178.13476562 C62.73420104 174.13382916 62.73420104 174.13382916 69.0625 177.75 C72.6843814 181.95605582 73.46074711 185.29819189 73.30859375 190.7578125 C72.61384489 195.8057346 69.73311539 198.41553899 65.8984375 201.47265625 C61.91211717 204.25607784 57.80460994 205.75485663 53.1875 207.1875 C52.38779785 207.44233154 51.5880957 207.69716309 50.76416016 207.9597168 C34.91210564 212.91973019 18.7872843 213.19797237 2.29101562 213.24023438 C0.00093991 213.24999599 -2.28825539 213.28121229 -4.578125 213.3125 C-23.12205371 213.44502488 -42.22021243 210.29598187 -57.73046875 199.55078125 C-59.76746857 198.1588898 -61.76834182 197.04144049 -64 196 C-64 195.34 -64 194.68 -64 194 C-64.57492188 193.75636719 -65.14984375 193.51273438 -65.7421875 193.26171875 C-80.00048563 185.29384627 -90.14763522 163.29516421 -94.8359375 148.33203125 C-102.72826645 114.18912992 -94.87777249 75.96991937 -77.19140625 46.2734375 C-73.27318512 40.42055103 -68.77539642 35.1656039 -64 30 C-63.15050781 29.07960937 -62.30101562 28.15921875 -61.42578125 27.2109375 C-49.78314854 15.11137258 -18.42013078 -6.66419366 0 0 Z M-8.32421875 90.859375 C-14.52489945 98.78005804 -16.59186566 107.81454325 -15.77734375 117.703125 C-14.87728189 123.54041942 -13.33056308 126.96470259 -9 131 C-4.91536542 133.78497812 -1.23950899 134.66131516 3.6328125 134.47265625 C10.50462941 133.1005608 15.93212042 127.88860428 19.78125 122.25390625 C24.30639495 113.88528882 25.37618414 103.92679353 23.53125 94.640625 C21.91859649 89.5338889 19.4111876 86.97079981 15 84 C6.03488731 80.11511784 -2.15709879 84.35039695 -8.32421875 90.859375 Z " fill="#7ED857" transform="translate(224,129)"/>
<path d="M0 0 C7.13418334 2.20136307 13.72181267 5.06325986 20.4375 8.3125 C21.41009766 8.77333984 22.38269531 9.23417969 23.38476562 9.70898438 C49.58760628 22.29404946 49.58760628 22.29404946 54.34375 33.10546875 C57.22657266 41.42790322 56.28035187 48.95476817 53 57 C52.00745541 58.63463636 50.96791266 60.24168773 49.8828125 61.81640625 C49.34285645 62.6060376 48.80290039 63.39566895 48.24658203 64.20922852 C47.83520996 64.80018311 47.42383789 65.3911377 47 66 C47.78125244 65.93941406 48.56250488 65.87882812 49.36743164 65.81640625 C52.93224834 65.54151863 56.49736474 65.27072346 60.0625 65 C61.29162109 64.90460938 62.52074219 64.80921875 63.78710938 64.7109375 C69.5383237 64.27688359 75.23163181 63.86286197 81 64 C81.38218767 65.65614657 81.71395102 67.32457024 82 69 C79.91374986 71.08625014 75.64212629 70.63263904 72.7578125 70.90234375 C71.9196701 70.98496964 71.08152771 71.06759552 70.21798706 71.15272522 C66.62512323 71.50679604 63.0312991 71.85064085 59.4375 72.19506836 C46.22699504 73.46077333 46.22699504 73.46077333 33.14013672 75.62719727 C30.40741301 76.10322614 27.76578384 76.14950183 25 76 C25.17390259 76.86782104 25.17390259 76.86782104 25.35131836 77.75317383 C29.57759865 98.98173114 29.57759865 98.98173114 30 108 C26.57704891 110.11624058 26.57704891 110.11624058 24.03295898 109.60375977 C21.82175147 108.61331479 19.6217688 107.61131768 17.4375 106.5625 C16.66986328 106.23056641 15.90222656 105.89863281 15.11132812 105.55664062 C11.12009603 103.68107471 9.31581628 102.53340623 7.015625 98.6484375 C6.00949924 95.03412419 5.50538659 91.80449988 5.3125 88.0625 C5.24675781 86.91910156 5.18101562 85.77570313 5.11328125 84.59765625 C5.05720703 83.31181641 5.05720703 83.31181641 5 82 C-10.00087063 86.67411481 -10.00087063 86.67411481 -21 97 C-20.12132086 100.84861463 -18.61648443 102.77859628 -15.375 104.9375 C17.18563341 124.95512211 65.50285389 125.39788654 102.56347656 125.26074219 C105.99822627 125.25000554 109.43245324 125.26072713 112.8671875 125.2734375 C132.2104117 125.28629645 151.43479318 124.15900441 170.5625 121.1875 C171.67399414 121.01718262 172.78548828 120.84686523 173.93066406 120.67138672 C205.8990468 116.22571939 205.8990468 116.22571939 233 100 C233.04092937 97.66702567 233.04241723 95.33294775 233 93 C234 92 234 92 236.5625 91.9375 C237.366875 91.958125 238.17125 91.97875 239 92 C240.53214888 95.06429776 240.22938548 97.6165642 240 101 C237.1929168 108.48555521 228.80186958 112.86470832 221.9375 116.0625 C162.83084358 139.73034112 84.50249256 137.61589591 23 125 C22.07670898 124.81179688 21.15341797 124.62359375 20.20214844 124.4296875 C-16.66897624 116.7241233 -16.66897624 116.7241233 -27.375 102.125 C-28.35607605 98.78934142 -27.80974963 96.35467706 -27 93 C-25.68 91.02 -24.36 89.04 -23 87 C-29.93 83.535 -29.93 83.535 -37 80 C-36.24375886 75.46255314 -35.72515196 72.93065254 -33.875 68.9921875 C-33.42390869 68.0228125 -32.97281738 67.0534375 -32.50805664 66.0546875 C-32.01039795 65.00539063 -31.51273926 63.95609375 -31 62.875 C-30.48107178 61.76640625 -29.96214355 60.6578125 -29.42749023 59.515625 C-27.95549066 56.37627119 -26.47636213 53.24045133 -24.99432373 50.10583496 C-23.56897344 47.08714761 -22.1500239 44.06546329 -20.73062134 41.04397583 C-18.84366554 37.0281781 -16.95357354 33.01386005 -15.0625 29 C-14.69842041 28.22718689 -14.33434082 27.45437378 -13.95922852 26.65814209 C-2.62956132 2.62956132 -2.62956132 2.62956132 0 0 Z M10 27 C9.70867187 27.64324219 9.41734375 28.28648437 9.1171875 28.94921875 C-0.67910363 50.54418756 -0.67910363 50.54418756 -5.3125 59.6875 C-7.76719717 64.54501253 -10.21081365 69.4041638 -12.5625 74.3125 C-13.05878906 75.33988281 -13.55507812 76.36726563 -14.06640625 77.42578125 C-15.32401201 80.06250739 -15.32401201 80.06250739 -14 83 C-13.27554688 82.66226563 -12.55109375 82.32453125 -11.8046875 81.9765625 C-6.93300543 79.72909317 -2.15481852 77.53251361 3 76 C3.00257813 75.35675781 3.00515625 74.71351563 3.0078125 74.05078125 C3.36481423 65.70884087 6.18004649 59.34786164 10 52 C16.53923657 52.91374509 16.53923657 52.91374509 19.44140625 53.45703125 C23.51323473 54.13941871 25.55808758 54.19283451 29.4375 52.5 C32.65337168 49.36256421 33.47119989 47.45702951 34 43 C32.6942135 38.55530363 31.63353988 36.0409699 27.63671875 33.6015625 C26.33154966 32.920719 25.01457219 32.26209782 23.6875 31.625 C23.03587891 31.28339844 22.38425781 30.94179688 21.71289062 30.58984375 C17.82922545 28.62274207 14.3783607 27.47517093 10 27 Z " fill="#010101" transform="translate(127,309)"/>
<path d="M0 0 C1.58035774 3.16071549 1.22575346 6.53274504 1.25 10 C1.270625 10.73734375 1.29125 11.4746875 1.3125 12.234375 C1.328125 14.375 1.328125 14.375 1 18 C-2.06771191 20.04514127 -2.65568048 20.24827274 -6.10424805 20.22705078 C-6.92487228 20.22689972 -7.74549652 20.22674866 -8.59098816 20.22659302 C-9.9129998 20.21110916 -9.9129998 20.21110916 -11.26171875 20.1953125 C-12.16751175 20.1924826 -13.07330475 20.18965271 -14.00654602 20.18673706 C-16.90033158 20.17553964 -19.79380794 20.15043589 -22.6875 20.125 C-24.64908407 20.11496963 -26.610673 20.10584388 -28.57226562 20.09765625 C-33.3816296 20.07560173 -38.19076237 20.04107489 -43 20 C-43 23.96 -43 27.92 -43 32 C-42.13761719 31.98428955 -41.27523437 31.9685791 -40.38671875 31.95239258 C-13.8458601 31.53725375 11.98119114 32.78773487 38.1875 37.5 C39.31019287 37.70133545 40.43288574 37.9026709 41.58959961 38.11010742 C50.11393158 39.76196592 54.6762676 42.1552012 60 49 C54.37080257 48.00090239 48.75348625 46.96322215 43.15234375 45.81640625 C27.83125697 42.70726406 12.5549326 40.54472061 -3 39 C-2.98839844 39.77085937 -2.97679687 40.54171875 -2.96484375 41.3359375 C-2.95582031 42.33882813 -2.94679688 43.34171875 -2.9375 44.375 C-2.92589844 45.37273437 -2.91429687 46.37046875 -2.90234375 47.3984375 C-3 50 -3 50 -4 52 C-8.90933409 52.9857554 -13.68857497 53.11771657 -18.68359375 53.09765625 C-19.38396255 53.0962413 -20.08433136 53.09482635 -20.80592346 53.09336853 C-23.01649466 53.08782477 -25.22696004 53.07528326 -27.4375 53.0625 C-28.94726415 53.05747771 -30.45702991 53.05291609 -31.96679688 53.04882812 C-35.64460363 53.03872981 -39.32218504 53.01914421 -43 53 C-42.505 60.92 -42.505 60.92 -42 69 C-40.67758301 68.98952637 -39.35516602 68.97905273 -37.99267578 68.96826172 C-33.09882298 68.93213453 -28.20498202 68.90912611 -23.31103516 68.89013672 C-21.1905723 68.88006249 -19.07012339 68.86640267 -16.94970703 68.84912109 C-13.90654057 68.82493511 -10.86355734 68.81353131 -7.8203125 68.8046875 C-6.86818878 68.79436493 -5.91606506 68.78404236 -4.93508911 68.77340698 C-4.05432709 68.77325592 -3.17356506 68.77310486 -2.26611328 68.77294922 C-1.48889923 68.768508 -0.71168518 68.76406677 0.08908081 68.75949097 C2 69 2 69 4 71 C4.14507695 73.74485593 4.18652423 76.38480543 4.125 79.125 C4.11597656 79.87910156 4.10695313 80.63320313 4.09765625 81.41015625 C4.0740687 83.27357254 4.03819719 85.13682593 4 87 C-0.24154584 88.60139464 -3.7389295 89.24896271 -8.26489258 89.24291992 C-9.48247757 89.24599655 -10.70006256 89.24907318 -11.95454407 89.25224304 C-13.90483772 89.24146477 -13.90483772 89.24146477 -15.89453125 89.23046875 C-17.25119483 89.22927548 -18.60785924 89.2288241 -19.96452332 89.2290802 C-22.79630768 89.22752169 -25.62796449 89.21927646 -28.4597168 89.20581055 C-32.09601385 89.18874017 -35.73217208 89.18499885 -39.36850452 89.18575573 C-42.16423374 89.18548452 -44.95993239 89.18001264 -47.75565147 89.17275429 C-49.7504934 89.16801399 -51.74534176 89.16629074 -53.7401886 89.16459656 C-55.54292488 89.15502678 -55.54292488 89.15502678 -57.38208008 89.14526367 C-58.44542068 89.14145187 -59.50876129 89.13764008 -60.60432434 89.13371277 C-63 89 -63 89 -64 88 C-64.23025957 85.52919639 -64.39848715 83.08229617 -64.5234375 80.60546875 C-64.56455658 79.84493698 -64.60567566 79.08440521 -64.64804077 78.30082703 C-65.0989499 69.64214411 -65.39595626 60.97961015 -65.625 52.3125 C-65.64745789 51.47958435 -65.66991577 50.6466687 -65.6930542 49.78851318 C-66.52693844 17.52218876 -66.52693844 17.52218876 -65 2 C-63.19950755 0.19950755 -60.46193285 0.76245315 -58.02734375 0.68359375 C-56.74923828 0.64161865 -55.47113281 0.59964355 -54.15429688 0.55639648 C-52.74871025 0.51632927 -51.34311086 0.47670775 -49.9375 0.4375 C-49.23391357 0.41632111 -48.53032715 0.39514221 -47.80541992 0.37332153 C-31.87046822 -0.10262771 -15.94049294 -0.10411295 0 0 Z " fill="#000100" transform="translate(274,341)"/>
<path d="M0 0 C0 1.98 0 3.96 0 6 C-1.59328125 6.65355469 -1.59328125 6.65355469 -3.21875 7.3203125 C-14.55521617 11.67483011 -14.55521617 11.67483011 -24 19 C-24.90148433 20.96872445 -24.90148433 20.96872445 -25 23 C-19.81030996 29.52896489 -12.11559617 33.40334282 -4.3125 35.9375 C-3.55904297 36.18346924 -2.80558594 36.42943848 -2.02929688 36.68286133 C18.39589886 43.03052608 39.74687273 46.1270467 61 48 C62.4535791 48.14248169 62.4535791 48.14248169 63.93652344 48.2878418 C75.20818624 49.26477713 86.50324959 49.18607913 97.80908203 49.18530273 C101.33248263 49.1874738 104.85556139 49.20564017 108.37890625 49.22460938 C127.89772001 49.27374932 147.2602999 48.18611208 166.5625 45.1875 C167.67399414 45.01718262 168.78548828 44.84686523 169.93066406 44.67138672 C201.8990468 40.22571939 201.8990468 40.22571939 229 24 C229.04092937 21.66702567 229.04241723 19.33294775 229 17 C230 16 230 16 232.5625 15.9375 C233.366875 15.958125 234.17125 15.97875 235 16 C236.53214888 19.06429776 236.22938548 21.6165642 236 25 C233.1929168 32.48555521 224.80186958 36.86470832 217.9375 40.0625 C158.83084358 63.73034112 80.50249256 61.61589591 19 49 C18.07670898 48.81179688 17.15341797 48.62359375 16.20214844 48.4296875 C-20.66897624 40.7241233 -20.66897624 40.7241233 -31.375 26.125 C-32.36912925 22.74496055 -31.87706487 20.39131751 -31 17 C-26.54121565 10.55953372 -20.78158587 7.80067182 -13.9375 4.375 C-13.32583984 4.06304687 -12.71417969 3.75109375 -12.08398438 3.4296875 C-7.88750049 1.32464045 -4.68456658 0 0 0 Z " fill="#84D260" transform="translate(131,385)"/>
<path d="M0 0 C27.42401073 -0.49959661 54.10366419 0.62994311 81.1875 5.5 C82.31019287 5.70133545 83.43288574 5.9026709 84.58959961 6.11010742 C93.11393158 7.76196592 97.6762676 10.1552012 103 17 C97.35985519 15.9978485 91.73085185 14.95834229 86.1171875 13.81640625 C73.72054051 11.31691488 61.44582769 9.23138656 48.83349609 8.16430664 C47.84816895 8.06754639 46.8628418 7.97078613 45.84765625 7.87109375 C44.98148682 7.79818115 44.11531738 7.72526855 43.22290039 7.65014648 C41 7 41 7 39.73486328 4.98364258 C38.01045726 2.57678535 38.01045726 2.57678535 34.17114258 2.45410156 C32.57933312 2.41283169 30.9868738 2.39302339 29.39453125 2.390625 C28.55532639 2.37408875 27.71612152 2.35755249 26.85148621 2.34051514 C24.17175042 2.29193977 21.49258243 2.27064372 18.8125 2.25 C16.99541399 2.22184819 15.17835455 2.19192187 13.36132812 2.16015625 C8.90759882 2.0861786 4.45418649 2.03666257 0 2 C0 1.34 0 0.68 0 0 Z " fill="#85D065" transform="translate(231,373)"/>
<path d="M0 0 C0.38218767 1.65614657 0.71395102 3.32457024 1 5 C-1.08625014 7.08625014 -5.35787371 6.63263904 -8.2421875 6.90234375 C-9.0803299 6.98496964 -9.91847229 7.06759552 -10.78201294 7.15272522 C-14.37487677 7.50679604 -17.9687009 7.85064085 -21.5625 8.19506836 C-34.8181227 9.42960553 -34.8181227 9.42960553 -47.94116211 11.62280273 C-50.64481018 12.11813491 -53.2608111 12.14806426 -56 12 C-56.33 11.01 -56.66 10.02 -57 9 C-56.23816406 8.90203125 -55.47632813 8.8040625 -54.69140625 8.703125 C-47.5033274 7.66856331 -47.5033274 7.66856331 -40.8125 5 C-34.10201765 1.71796409 -26.34092219 1.63826544 -19 1 C-17.83855469 0.88785156 -16.67710937 0.77570313 -15.48046875 0.66015625 C-10.30170975 0.1846224 -5.19971778 -0.1181754 0 0 Z " fill="#80D05C" transform="translate(208,373)"/>
<path d="M0 0 C0 0.99 0 1.98 0 3 C4.95 3.495 4.95 3.495 10 4 C10 4.33 10 4.66 10 5 C6.83379318 5.31726722 3.66695836 5.62783209 0.5 5.9375 C-0.80130859 6.06801758 -0.80130859 6.06801758 -2.12890625 6.20117188 C-17.10753422 7.65593071 -31.93997769 8.1621454 -46.98144531 8.13037109 C-49.99549385 8.12500802 -53.00939343 8.13035174 -56.0234375 8.13671875 C-67.05765062 8.14011097 -77.99795172 7.87625167 -89 7 C-89 6.67 -89 6.34 -89 6 C-88.0965535 5.98969254 -87.19310699 5.97938507 -86.26228333 5.96876526 C-77.74313001 5.87073855 -69.22404515 5.76821673 -60.7050066 5.66066074 C-56.32541682 5.60552498 -51.94582025 5.55212012 -47.56616211 5.50268555 C-43.33860787 5.45490389 -39.11113246 5.40255646 -34.88367271 5.34705925 C-33.27178603 5.32669812 -31.65987778 5.30797494 -30.04795265 5.29092598 C-27.7881556 5.26674329 -25.52850574 5.23670841 -23.26879883 5.20532227 C-21.34019768 5.18200584 -21.34019768 5.18200584 -19.37263489 5.15821838 C-16.45585393 5.0213852 -13.83331155 4.67473083 -11 4 C-11 3.67 -11 3.34 -11 3 C-26.84 3 -42.68 3 -59 3 C-59 2.67 -59 2.34 -59 2 C-57.98800537 1.97494385 -56.97601074 1.9498877 -55.93334961 1.92407227 C-52.10318777 1.82840499 -48.27314201 1.72860407 -44.44311523 1.62768555 C-42.79958857 1.58492791 -41.15603405 1.54322494 -39.51245117 1.50268555 C-30.02116155 1.2677957 -20.56634785 0.91287069 -11.09765625 0.20507812 C-7.38304458 -0.04084509 -3.7205156 -0.07592889 0 0 Z " fill="#8ACB6B" transform="translate(283,433)"/>
<path d="M0 0 C0 0.99 0 1.98 0 3 C-4.2210557 3.79908693 -8.21492939 4.13057977 -12.50854492 4.14526367 C-13.77973679 4.15164352 -15.05092865 4.15802338 -16.36064148 4.16459656 C-17.73391685 4.1661247 -19.10719273 4.16723894 -20.48046875 4.16796875 C-21.89960259 4.1711849 -23.31873611 4.17454924 -24.73786926 4.17805481 C-27.70245127 4.18402352 -30.66700421 4.18589681 -33.6315918 4.18530273 C-37.43140011 4.18520072 -41.23102319 4.1989029 -45.03078747 4.21607494 C-47.95698405 4.2271816 -50.88313546 4.22922243 -53.80935097 4.22869301 C-55.21079464 4.22987321 -56.61223948 4.23429728 -58.01366234 4.24202538 C-59.96896334 4.25180666 -61.92431902 4.2476878 -63.87963867 4.24291992 C-64.99183273 4.24434494 -66.10402679 4.24576996 -67.24992371 4.24723816 C-70 4 -70 4 -73 2 C-72 1 -72 1 -69.1484375 0.8671875 C-67.28058594 0.87105469 -67.28058594 0.87105469 -65.375 0.875 C-63.56128906 0.87113281 -63.56128906 0.87113281 -61.7109375 0.8671875 C-57.77594039 0.92318416 -53.88272332 1.24824983 -49.9609375 1.56640625 C-41.98412369 2.12152191 -34.22121408 1.69720102 -26.25 1.0625 C-17.484877 0.39147044 -8.79504782 -0.17567132 0 0 Z " fill="#7FD857" transform="translate(273,435)"/>
<path d="M0 0 C22.22106714 -0.40481204 43.91481147 0.46364359 66 3 C66 3.33 66 3.66 66 4 C63.93831015 4.19620767 61.87559002 4.38160753 59.8125 4.5625 C58.66394531 4.66691406 57.51539063 4.77132813 56.33203125 4.87890625 C53.31368801 4.98859985 50.91076064 4.74002389 48 4 C47.67 4.66 47.34 5.32 47 6 C49.97 6 52.94 6 56 6 C56.495 6.99 56.495 6.99 57 8 C46.09404389 8.22257053 46.09404389 8.22257053 41 7 C40.427052 6.00564941 40.427052 6.00564941 39.8425293 4.99121094 C38.00983132 2.59070019 38.00983132 2.59070019 34.17114258 2.45410156 C32.57933312 2.41283169 30.9868738 2.39302339 29.39453125 2.390625 C28.55532639 2.37408875 27.71612152 2.35755249 26.85148621 2.34051514 C24.17175042 2.29193977 21.49258243 2.27064372 18.8125 2.25 C16.99541399 2.22184819 15.17835455 2.19192187 13.36132812 2.16015625 C8.90759882 2.0861786 4.45418649 2.03666257 0 2 C0 1.34 0 0.68 0 0 Z " fill="#6CA050" transform="translate(231,373)"/>
<path d="M0 0 C5.26152256 0.50109739 9.20964173 2.20964173 13 6 C13.27855207 12.24956563 12.52793792 18.14716854 11.5625 24.3125 C9.77671755 35.89018051 8.7917808 47.2788377 8.6875 59 C8.65849609 60.11761719 8.62949219 61.23523438 8.59960938 62.38671875 C8.59123047 63.45535156 8.58285156 64.52398437 8.57421875 65.625 C8.55963623 66.58664063 8.54505371 67.54828125 8.5300293 68.5390625 C8.77602806 71.16732135 8.77602806 71.16732135 11.02661133 72.8359375 C12.00343872 73.41214844 12.00343872 73.41214844 13 74 C10.6875 73.875 10.6875 73.875 8 73 C4.71976992 68.03301654 4.56851816 63.79742452 4.6875 58.0625 C4.68427734 57.28970703 4.68105469 56.51691406 4.67773438 55.72070312 C4.72355347 50.79306722 5.60307438 46.74954712 7 42 C7.3323238 39.23354719 7.45673901 36.47081981 7.5625 33.6875 C7.87795567 26.24408867 7.87795567 26.24408867 9 24 C9.2275015 22.12943209 9.40962811 20.25314042 9.5625 18.375 C9.64628906 17.37210938 9.73007812 16.36921875 9.81640625 15.3359375 C9.87699219 14.56507813 9.93757813 13.79421875 10 13 C10.66 13 11.32 13 12 13 C12 11.35 12 9.7 12 8 C11.401875 7.731875 10.80375 7.46375 10.1875 7.1875 C8 6 8 6 6.5625 4.5 C4.5843405 2.60096688 2.56441218 1.90100969 0 1 C0 0.67 0 0.34 0 0 Z " fill="#87CD67" transform="translate(267,189)"/>
<path d="M0 0 C0 1.98 0 3.96 0 6 C-1.86896555 6.84678051 -3.74550181 7.67686211 -5.625 8.5 C-6.66914062 8.9640625 -7.71328125 9.428125 -8.7890625 9.90625 C-13.00216114 11.34136876 -16.22158157 11.74880776 -20.375 10 C-21.179375 9.505 -21.179375 9.505 -22 9 C-15.63243084 4.54817514 -7.95679895 0 0 0 Z " fill="#80CE5B" transform="translate(131,385)"/>
<path d="M0 0 C0.83917969 0.165 1.67835938 0.33 2.54296875 0.5 C6.1950826 1.02821534 9.62535106 1.06229608 13.3125 1 C15.54135518 0.96273596 17.77133373 0.95276999 20 1 C20.33 1.33 20.66 1.66 21 2 C23.32817964 2.36760731 25.6618385 2.70241581 28 3 C27.01 4.485 27.01 4.485 26 6 C23.05123158 6.08314755 20.3585463 6.00275992 17.4375 5.75 C16.64408203 5.69714844 15.85066406 5.64429688 15.03320312 5.58984375 C9.15838854 5.15838854 9.15838854 5.15838854 8 4 C6.48530552 3.76807135 4.96245438 3.58784762 3.4375 3.4375 C2.61121094 3.35371094 1.78492188 3.26992188 0.93359375 3.18359375 C0.29550781 3.12300781 -0.34257812 3.06242187 -1 3 C-0.67 2.01 -0.34 1.02 0 0 Z " fill="#7ED757" transform="translate(279,376)"/>
<path d="M0 0 C0.33 0 0.66 0 1 0 C1.89556188 11.13252306 1.97350957 21.87203671 1 33 C1.99 33.33 2.98 33.66 4 34 C3.67 36.64 3.34 39.28 3 42 C-0.18934899 38.81065101 -0.90196221 35.27380159 -1.24291992 30.84375 C-1.23881104 29.7403125 -1.23470215 28.636875 -1.23046875 27.5 C-1.22853516 26.283125 -1.22660156 25.06625 -1.22460938 23.8125 C-1.21236328 22.554375 -1.20011719 21.29625 -1.1875 20 C-1.18685547 18.741875 -1.18621094 17.48375 -1.18554688 16.1875 C-1.15919983 10.6604756 -1.02747403 5.44433123 0 0 Z " fill="#88D069" transform="translate(180,225)"/>
<path d="M0 0 C1.32 0.33 2.64 0.66 4 1 C3.67 2.32 3.34 3.64 3 5 C9.6 5 16.2 5 23 5 C22.34 3.35 21.68 1.7 21 0 C21.66 0 22.32 0 23 0 C23.33 0.66 23.66 1.32 24 2 C26.32156597 2.40729228 28.6568787 2.74438677 31 3 C23.48179093 8.01213938 13.33794276 8.03723058 4.703125 6.359375 C-3.07943925 4.46028037 -3.07943925 4.46028037 -6 3 C-6 2.34 -6 1.68 -6 1 C-3.03 1.495 -3.03 1.495 0 2 C0 1.34 0 0.68 0 0 Z " fill="#86D064" transform="translate(203,282)"/>
<path d="M0 0 C0.33 0 0.66 0 1 0 C1.33 3.96 1.66 7.92 2 12 C1.01 12 0.02 12 -1 12 C-1 25.53 -1 39.06 -1 53 C-1.33 53 -1.66 53 -2 53 C-3.42972869 35.00073705 -3.08436474 17.81151168 0 0 Z " fill="#89CD67" transform="translate(130,216)"/>
<path d="M0 0 C1.2065625 0.0309375 1.2065625 0.0309375 2.4375 0.0625 C3.93047212 3.04844424 3.55505228 5.77103624 3.4375 9.0625 C3.1075 9.7225 2.7775 10.3825 2.4375 11.0625 C1.7775 11.0625 1.1175 11.0625 0.4375 11.0625 C0.1075 10.4025 -0.2225 9.7425 -0.5625 9.0625 C-3.2025 11.0425 -5.8425 13.0225 -8.5625 15.0625 C-9.2225 14.7325 -9.8825 14.4025 -10.5625 14.0625 C-10.0571875 13.71058594 -9.551875 13.35867188 -9.03125 12.99609375 C-6.99962457 11.45221966 -5.23412134 9.99452466 -3.5625 8.0625 C-3.06053706 4.35176495 -3.06053706 4.35176495 -3.5625 1.0625 C-2.5625 0.0625 -2.5625 0.0625 0 0 Z " fill="#89CC6A" transform="translate(363.5625,400.9375)"/>
<path d="M0 0 C2.22889496 -0.05428973 4.45817471 -0.09292338 6.6875 -0.125 C8.54955078 -0.15980469 8.54955078 -0.15980469 10.44921875 -0.1953125 C13.84353943 -0.00860619 15.96217657 0.56788324 19 2 C20.32676508 2.35858516 21.65835921 2.7018576 23 3 C23 3.66 23 4.32 23 5 C20.6739143 5.38063221 18.33944736 5.71269945 16 6 C15.67 5.67 15.34 5.34 15 5 C13.65252916 4.76924918 12.29622435 4.58846937 10.9375 4.4375 C9.638125 4.293125 8.33875 4.14875 7 4 C7 3.34 7 2.68 7 2 C4.69 2 2.38 2 0 2 C0 1.34 0 0.68 0 0 Z " fill="#7DD757" transform="translate(154,431)"/>
<path d="M0 0 C1.10601562 -0.01417969 2.21203125 -0.02835938 3.3515625 -0.04296875 C6.33398037 0.18437318 7.80518466 0.7889634 10.375 2.1875 C9.43817383 2.20151855 9.43817383 2.20151855 8.48242188 2.21582031 C5.6125237 2.26998937 2.74417515 2.35354195 -0.125 2.4375 C-1.59839844 2.45876953 -1.59839844 2.45876953 -3.1015625 2.48046875 C-11.08097133 2.74644904 -16.07180815 4.81870543 -22.625 9.1875 C-25.56908187 10.51233684 -27.36789462 11.1875 -30.625 11.1875 C-20.76815514 3.81506481 -12.50296026 0.07320234 0 0 Z " fill="#8BCE6C" transform="translate(228.625,184.8125)"/>
<path d="M0 0 C0.5625 1.9375 0.5625 1.9375 1 4 C0.67 4.33 0.34 4.66 0 5 C-0.36760731 7.32817964 -0.70241581 9.6618385 -1 12 C-0.34 12 0.32 12 1 12 C1.33 13.32 1.66 14.64 2 16 C2.66 15.34 3.32 14.68 4 14 C4.66 13.34 5.32 12.68 6 12 C7.5 13.25 7.5 13.25 9 15 C9 16.32 9 17.64 9 19 C9.33 19.99 9.66 20.98 10 22 C4.74411317 20.19798166 1.23066104 17.84599156 -1.875 13.1875 C-3.24575503 9.30369407 -2.97402227 6.97101387 -2 3 C-1.34 2.01 -0.68 1.02 0 0 Z " fill="#88CD60" transform="translate(102,399)"/>
<path d="M0 0 C0.598125 0.66 1.19625 1.32 1.8125 2 C1.4825 2.66 1.1525 3.32 0.8125 4 C0.1525 3.525625 -0.5075 3.05125 -1.1875 2.5625 C-8.29480979 -1.13922385 -14.79596716 0.20178323 -22.25 1.9375 C-28.01802876 3.24861231 -33.25818258 4.26549182 -39.1875 4 C-39.1875 3.67 -39.1875 3.34 -39.1875 3 C-35.25371388 2.14847232 -31.31500637 1.32222355 -27.375 0.5 C-25.72467773 0.14228516 -25.72467773 0.14228516 -24.04101562 -0.22265625 C-6.21972047 -3.9025697 -6.21972047 -3.9025697 0 0 Z " fill="#8ACD6D" transform="translate(293.1875,307)"/>
<path d="M0 0 C2.64503675 2.09097623 4.84719354 4.41109449 7 7 C3.28233332 8.23922223 1.56110463 7.57018942 -2.1875 6.5625 C-3.81751953 6.13130859 -3.81751953 6.13130859 -5.48046875 5.69140625 C-6.72763672 5.34916016 -6.72763672 5.34916016 -8 5 C-8 4.67 -8 4.34 -8 4 C-5.36 4 -2.72 4 0 4 C0 3.34 0 2.68 0 2 C-3.3 1.67 -6.6 1.34 -10 1 C-10 1.66 -10 2.32 -10 3 C-11.32 2.34 -12.64 1.68 -14 1 C-9.7696126 -3.2303874 -5.12108143 -2.04843257 0 0 Z " fill="#76C055" transform="translate(327,382)"/>
<path d="M0 0 C0 0.66 0 1.32 0 2 C-0.99 2 -1.98 2 -3 2 C-3 2.66 -3 3.32 -3 4 C-3.66 4 -4.32 4 -5 4 C-5.33 4.99 -5.66 5.98 -6 7 C-9.3 7 -12.6 7 -16 7 C-16.33 6.34 -16.66 5.68 -17 5 C-11.43090802 2.01170674 -6.37354033 0 0 0 Z " fill="#81D756" transform="translate(347,421)"/>
<path d="M0 0 C4.92951281 -0.12357051 9.85812532 -0.21432177 14.78881836 -0.2746582 C16.46606141 -0.29980792 18.1431948 -0.33393259 19.82006836 -0.37719727 C22.23058085 -0.4378346 24.63964552 -0.46620284 27.05078125 -0.48828125 C28.17592888 -0.52699089 28.17592888 -0.52699089 29.32380676 -0.56648254 C31.4465332 -0.56762695 31.4465332 -0.56762695 35 0 C36.99682617 2.53051758 36.99682617 2.53051758 38 5 C37.34 5.99 36.68 6.98 36 8 C36 7.01 36 6.02 36 5 C35.34 5 34.68 5 34 5 C34 4.01 34 3.02 34 2 C22.78 1.67 11.56 1.34 0 1 C0 0.67 0 0.34 0 0 Z " fill="#051503" transform="translate(234,375)"/>
<path d="M0 0 C0.33 1.32 0.66 2.64 1 4 C0.01 4.495 0.01 4.495 -1 5 C-1.556875 6.11375 -1.556875 6.11375 -2.125 7.25 C-4.77401705 11.13522501 -7.59992162 13.31248975 -12 15 C-16.04983429 15.49672561 -19.95732606 15.59085234 -24 15 C-24.66 14.34 -25.32 13.68 -26 13 C-25.23816406 13.06960938 -24.47632813 13.13921875 -23.69140625 13.2109375 C-16.81440376 13.57152939 -12.44642521 13.01543575 -6.9140625 8.80078125 C-4.06608195 6.12135465 -2.05915332 3.32121504 0 0 Z " fill="#89CD69" transform="translate(244,249)"/>
<path d="M0 0 C0.33 0.66 0.66 1.32 1 2 C1.99 2.66 2.98 3.32 4 4 C-7.52164009 6.29612756 -7.52164009 6.29612756 -13 6 C-13.33 5.01 -13.66 4.02 -14 3 C-13.15695313 2.86722656 -12.31390625 2.73445313 -11.4453125 2.59765625 C-10.34960938 2.42105469 -9.25390625 2.24445313 -8.125 2.0625 C-6.48917969 1.80146484 -6.48917969 1.80146484 -4.8203125 1.53515625 C-2.06178454 1.14448841 -2.06178454 1.14448841 0 0 Z " fill="#82BB65" transform="translate(165,379)"/>
<path d="M0 0 C9.1268659 -0.78982493 17.29969595 1.5820495 26 4 C26 4.33 26 4.66 26 5 C23.77027727 4.88534579 21.54121247 4.75785234 19.3125 4.625 C18.07113281 4.55539063 16.82976562 4.48578125 15.55078125 4.4140625 C12.27208197 4.03172793 9.98988519 3.3106346 7 2 C4.67402489 1.6186926 2.34087842 1.27539746 0 1 C0 0.67 0 0.34 0 0 Z " fill="#89CE6B" transform="translate(250,128)"/>
<path d="M0 0 C3.3 0 6.6 0 10 0 C10 1.32 10 2.64 10 4 C6.37 4 2.74 4 -1 4 C-0.67 2.68 -0.34 1.36 0 0 Z " fill="#7DD755" transform="translate(283,433)"/>
<path d="M0 0 C1.3058334 3.92128522 0.38030356 5.97831091 -1.40039062 9.68359375 C-1.74263672 10.36550781 -2.08488281 11.04742187 -2.4375 11.75 C-2.77587891 12.44738281 -3.11425781 13.14476562 -3.46289062 13.86328125 C-4.29806458 15.58068121 -5.14765424 17.29105738 -6 19 C-7.04728614 15.85814159 -6.99290464 15.05937877 -6.1875 12 C-6.01605469 11.319375 -5.84460938 10.63875 -5.66796875 9.9375 C-5 8 -5 8 -3 5 C-2.34 5 -1.68 5 -1 5 C-0.67 3.35 -0.34 1.7 0 0 Z " fill="#8ACF69" transform="translate(326,244)"/>
<path d="M0 0 C1.6875 1.3125 1.6875 1.3125 2.6875 4.3125 C0.0475 5.3025 -2.5925 6.2925 -5.3125 7.3125 C-5.3125 6.6525 -5.3125 5.9925 -5.3125 5.3125 C-4.6525 5.3125 -3.9925 5.3125 -3.3125 5.3125 C-3.3125 4.6525 -3.3125 3.9925 -3.3125 3.3125 C-2.3225 3.3125 -1.3325 3.3125 -0.3125 3.3125 C-0.3125 2.6525 -0.3125 1.9925 -0.3125 1.3125 C-1.01375 1.6425 -1.715 1.9725 -2.4375 2.3125 C-5.57253116 3.40294562 -8.01813182 3.46572643 -11.3125 3.3125 C-7.7178755 0.91608367 -4.36280323 -1.29704961 0 0 Z " fill="#88CE68" transform="translate(347.3125,419.6875)"/>
<path d="M0 0 C0 3 0 3 -1 6 C-1.66 6 -2.32 6 -3 6 C-3 7.32 -3 8.64 -3 10 C-3.66 10 -4.32 10 -5 10 C-5.103125 10.598125 -5.20625 11.19625 -5.3125 11.8125 C-6.08876455 14.28243264 -7.07088921 15.32251235 -9 17 C-9.33 16.34 -9.66 15.68 -10 15 C-8.79962013 12.74743531 -7.56099268 10.64274155 -6.1875 8.5 C-5.63352539 7.60861328 -5.63352539 7.60861328 -5.06835938 6.69921875 C-3.52381193 4.24236231 -2.05813635 2.05813635 0 0 Z " fill="#89CD69" transform="translate(152,169)"/>
<path d="M0 0 C-0.99 1.485 -0.99 1.485 -2 3 C-0.35 3 1.3 3 3 3 C3 3.33 3 3.66 3 4 C-1.62 4 -6.24 4 -11 4 C-10.34 3.67 -9.68 3.34 -9 3 C-8.67 2.01 -8.34 1.02 -8 0 C-2.25 -1.125 -2.25 -1.125 0 0 Z " fill="#83D05F" transform="translate(175,378)"/>
<path d="M0 0 C0.33 0 0.66 0 1 0 C1.66 3.3 2.32 6.6 3 10 C1.02 10.99 1.02 10.99 -1 12 C-1.66 11.67 -2.32 11.34 -3 11 C-2.44894091 7.0507432 -1.61064629 3.65079826 0 0 Z " fill="#7ED85B" transform="translate(136,197)"/>
<path d="M0 0 C9.41002278 -0.18451025 9.41002278 -0.18451025 14 1 C14 1.33 14 1.66 14 2 C9.71 2 5.42 2 1 2 C0.67 3.32 0.34 4.64 0 6 C-1.32 5.67 -2.64 5.34 -4 5 C-3.34 5 -2.68 5 -2 5 C-1.34 3.35 -0.68 1.7 0 0 Z " fill="#89CD6B" transform="translate(253,187)"/>
<path d="M0 0 C1.32 0.66 2.64 1.32 4 2 C3.34 3.32 2.68 4.64 2 6 C2.639375 6.12375 3.27875 6.2475 3.9375 6.375 C4.618125 6.58125 5.29875 6.7875 6 7 C6.33 7.66 6.66 8.32 7 9 C1.55123997 7.27933894 -3.71169451 5.15294651 -9 3 C-5.61682513 2.02408417 -3.4342662 2.14143345 0 3 C0 2.01 0 1.02 0 0 Z " fill="#86D066" transform="translate(275,161)"/>
<path d="M0 0 C0.99 0 1.98 0 3 0 C4.84526962 2.62596061 5.98375849 4.95127546 7 8 C7.66 8.33 8.32 8.66 9 9 C10.35308313 10.31328657 11.68870078 11.64499081 13 13 C12.34 14.32 11.68 15.64 11 17 C8.97917953 14.97917953 7.96311059 13.25576123 6.625 10.75 C4.59195316 7.01570921 2.41917367 3.49436197 0 0 Z " fill="#85CD69" transform="translate(288,175)"/>
<path d="M0 0 C0 1.65 0 3.3 0 5 C-3.83887763 6.48320272 -6.06204091 7.22419163 -10 6 C-8.71283353 4.99421411 -7.42011342 3.99553202 -6.125 3 C-5.40570313 2.443125 -4.68640625 1.88625 -3.9453125 1.3125 C-2 0 -2 0 0 0 Z " fill="#84D566" transform="translate(182,142)"/>
<path d="M0 0 C1.875 1.5625 1.875 1.5625 3 3 C-1.00200378 4.60080151 -4.04556236 3.29279692 -8 2 C-8 1.34 -8 0.68 -8 0 C-5.06317146 -1.46841427 -3.13175678 -0.76696084 0 0 Z " fill="#7ED855" transform="translate(325,383)"/>
<path d="M0 0 C1 2 1 2 0.1875 4.5 C-1.5314537 8.1188499 -3.48168506 9.35078987 -7 11 C-7.99 11.495 -7.99 11.495 -9 12 C-7.50948318 7.39294801 -5.21457741 4.53603516 -2 1 C-1.34 0.67 -0.68 0.34 0 0 Z " fill="#85D266" transform="translate(197,197)"/>
<path d="M0 0 C5.53846154 0.61538462 5.53846154 0.61538462 7.875 2.5625 C8.431875 3.2740625 8.431875 3.2740625 9 4 C2.375 5.125 2.375 5.125 -1 4 C-0.67 2.68 -0.34 1.36 0 0 Z " fill="#7FD55A" transform="translate(119,421)"/>
<path d="M0 0 C1.41152344 0.41572266 1.41152344 0.41572266 2.8515625 0.83984375 C4.09679687 1.20207031 5.34203125 1.56429688 6.625 1.9375 C7.85476562 2.29714844 9.08453125 2.65679687 10.3515625 3.02734375 C13.56810836 3.88485972 16.70921999 4.51903985 20 5 C20 5.33 20 5.66 20 6 C12.22873489 7.94281628 7.05111365 5.39628641 0 2 C0 1.34 0 0.68 0 0 Z " fill="#87CF65" transform="translate(192,305)"/>
<path d="M0 0 C4.22941195 3.26818196 7.44229538 6.19151532 10 11 C9.75 13.375 9.75 13.375 9 15 C5.67275296 12.3065143 4.65228864 8.85534016 3 5 C1.41754725 3.24850835 1.41754725 3.24850835 0 2 C0 1.34 0 0.68 0 0 Z " fill="#82C563" transform="translate(308,152)"/>
<path d="M0 0 C3.16115776 1.36983503 3.9927092 1.9890638 6 5 C4.24871182 4.71617054 2.49899997 4.42260471 0.75 4.125 C-0.22453125 3.96257812 -1.1990625 3.80015625 -2.203125 3.6328125 C-5 3 -5 3 -9 1 C-6.03 1.33 -3.06 1.66 0 2 C0 1.34 0 0.68 0 0 Z " fill="#79B15A" transform="translate(328,385)"/>
<path d="M0 0 C2.40450178 2.40450178 2.29609139 3.08233942 2.3125 6.375 C2.32925781 7.14585937 2.34601563 7.91671875 2.36328125 8.7109375 C2 11 2 11 -1 15 C-0.67 10.05 -0.34 5.1 0 0 Z " fill="#8FCD6E" transform="translate(295,311)"/>
<path d="M0 0 C0 0.66 0 1.32 0 2 C2.31 2 4.62 2 7 2 C7 2.33 7 2.66 7 3 C1.06 3.33 -4.88 3.66 -11 4 C-7.61125486 1.74083657 -4.15175481 0 0 0 Z " fill="#85CC63" transform="translate(191,377)"/>
<path d="M0 0 C1.98 0.66 3.96 1.32 6 2 C3.31158141 4.25245881 1.35358125 5.88213958 -2 7 C-2.6875 5.1875 -2.6875 5.1875 -3 3 C-1.5625 1.25 -1.5625 1.25 0 0 Z " fill="#86CF65" transform="translate(111,394)"/>
<path d="M0 0 C4 0 4 0 5.8125 1.1875 C7 3 7 3 6.6875 5.6875 C6.460625 6.450625 6.23375 7.21375 6 8 C1.125 3.375 1.125 3.375 0 0 Z " fill="#84D065" transform="translate(144,305)"/>
<path d="M0 0 C1.9453125 0.2421875 1.9453125 0.2421875 4.125 0.875 C4.84945312 1.07867187 5.57390625 1.28234375 6.3203125 1.4921875 C6.87460938 1.65976562 7.42890625 1.82734375 8 2 C8 2.66 8 3.32 8 4 C1.375 4.25 1.375 4.25 -2 2 C-1.34 1.34 -0.68 0.68 0 0 Z " fill="#7DD65A" transform="translate(142,427)"/>
<path d="M0 0 C1.65 0 3.3 0 5 0 C5 1.32 5 2.64 5 4 C2.36 4 -0.28 4 -3 4 C-2.34 3.67 -1.68 3.34 -1 3 C-0.67 2.01 -0.34 1.02 0 0 Z " fill="#7FCE5F" transform="translate(203,375)"/>
<path d="M0 0 C4.43090471 1.20842856 6.98112756 2.51668565 10 6 C7.03 5.67 4.06 5.34 1 5 C0.67 3.35 0.34 1.7 0 0 Z " fill="#85D066" transform="translate(287,137)"/>
<path d="M0 0 C1.65 0 3.3 0 5 0 C4.67 1.65 4.34 3.3 4 5 C2.35 4.67 0.7 4.34 -1 4 C-0.67 2.68 -0.34 1.36 0 0 Z " fill="#62AA44" transform="translate(361,401)"/>
<path d="M0 0 C0.99 1.32 1.98 2.64 3 4 C2.34 4 1.68 4 1 4 C0.67 4.66 0.34 5.32 0 6 C-0.99 6.66 -1.98 7.32 -3 8 C-4.125 3.25 -4.125 3.25 -3 1 C-2.01 0.67 -1.02 0.34 0 0 Z " fill="#71C450" transform="translate(108,395)"/>
<path d="M0 0 C1.14926266 0.95421808 2.29430541 1.91352045 3.4375 2.875 C4.07558594 3.40867187 4.71367187 3.94234375 5.37109375 4.4921875 C7 6 7 6 8 8 C2.58860759 7.39873418 2.58860759 7.39873418 0.0625 5.6875 C-1 4 -1 4 -0.56640625 1.89453125 C-0.37949219 1.26933594 -0.19257813 0.64414063 0 0 Z " fill="#85D167" transform="translate(210,254)"/>
<path d="M0 0 C5.28 0.33 10.56 0.66 16 1 C16 1.33 16 1.66 16 2 C13.89807303 2.24887295 11.79326036 2.4734719 9.6875 2.6875 C8.51574219 2.81511719 7.34398437 2.94273437 6.13671875 3.07421875 C3 3 3 3 0 0 Z " fill="#8ACD6C" transform="translate(281,375)"/>
<path d="M0 0 C0.66 0 1.32 0 2 0 C2.66 0.66 3.32 1.32 4 2 C6.06874034 2.6425235 6.06874034 2.6425235 8 3 C7.67 4.32 7.34 5.64 7 7 C4.13302508 5.71480435 2.02392288 4.42870746 0 2 C0 1.34 0 0.68 0 0 Z " fill="#88C864" transform="translate(150,313)"/>
<path d="M0 0 C0.99 0.33 1.98 0.66 3 1 C1.62845496 3.95409701 0.01136276 6.44008376 -2 9 C-2.99 8.67 -3.98 8.34 -5 8 C-4.34 8 -3.68 8 -3 8 C-2.690625 7.05125 -2.38125 6.1025 -2.0625 5.125 C-1 2 -1 2 0 0 Z " fill="#85CD64" transform="translate(174,185)"/>
<path d="M0 0 C1.32 0 2.64 0 4 0 C2.71480435 2.86697492 1.42870746 4.97607712 -1 7 C-1.66 7 -2.32 7 -3 7 C-2.1654738 4.49642139 -1.20628008 2.33214148 0 0 Z " fill="#88CD67" transform="translate(309,272)"/>
<path d="M0 0 C1.60080151 4.00200378 0.29279692 7.04556236 -1 11 C-1.66 10.67 -2.32 10.34 -3 10 C-2.25 3.375 -2.25 3.375 0 0 Z " fill="#9BD156" transform="translate(102,399)"/>
<path d="M0 0 C0 1.98 0 3.96 0 6 C-1.32 5.34 -2.64 4.68 -4 4 C-3.67 3.67 -3.34 3.34 -3 3 C-3.99 2.34 -4.98 1.68 -6 1 C-3 0 -3 0 0 0 Z " fill="#60A140" transform="translate(131,385)"/>
<path d="M0 0 C0.99 0 1.98 0 3 0 C3.33 2.31 3.66 4.62 4 7 C3.34 7 2.68 7 2 7 C1.67 7.99 1.34 8.98 1 10 C0.67 6.7 0.34 3.4 0 0 Z " fill="#1E3815" transform="translate(208,373)"/>
<path d="M0 0 C1.98 0.66 3.96 1.32 6 2 C3.23776722 4.76223278 0.79293383 4.57856291 -3 5 C-2.67 4.34 -2.34 3.68 -2 3 C-1.34 3 -0.68 3 0 3 C0 2.01 0 1.02 0 0 Z " fill="#87CF67" transform="translate(292,282)"/>
<path d="M0 0 C0.99 0.33 1.98 0.66 3 1 C0.525 4.465 0.525 4.465 -2 8 C-2.33 6.68 -2.66 5.36 -3 4 C-1.5625 1.75 -1.5625 1.75 0 0 Z " fill="#88CD65" transform="translate(316,264)"/>
<path d="M0 0 C0.99 0.33 1.98 0.66 3 1 C3 1.66 3 2.32 3 3 C3.639375 3.2475 4.27875 3.495 4.9375 3.75 C7 5 7 5 7.75 7.125 C7.8325 7.74375 7.915 8.3625 8 9 C1.42857143 3.85714286 1.42857143 3.85714286 0 0 Z " fill="#87CB69" transform="translate(185,272)"/>
<path d="M0 0 C2.50298434 2.93828597 3.46930939 5.17902761 4 9 C2.29115995 7.37660195 0.62553283 5.70680947 -1 4 C-1 3.34 -1 2.68 -1 2 C-1.66 1.67 -2.32 1.34 -3 1 C-2.01 0.67 -1.02 0.34 0 0 Z " fill="#81CF65" transform="translate(251,272)"/>
<path d="M0 0 C6.93 0.495 6.93 0.495 14 1 C14 1.33 14 1.66 14 2 C12.41986783 2.25028811 10.83557694 2.47440946 9.25 2.6875 C7.92742187 2.87892578 7.92742187 2.87892578 6.578125 3.07421875 C4 3 4 3 0 0 Z " fill="#89CD69" transform="translate(168,431)"/>
<path d="M0 0 C5.41538462 -0.36923077 5.41538462 -0.36923077 8.375 1.5 C8.91125 1.995 9.4475 2.49 10 3 C7.8125 3.75 7.8125 3.75 5 4 C2.1875 2.0625 2.1875 2.0625 0 0 Z " fill="#7AD751" transform="translate(131,425)"/>
<path d="M0 0 C2.64 0 5.28 0 8 0 C8 0.66 8 1.32 8 2 C8.66 2.33 9.32 2.66 10 3 C9.34 3.66 8.68 4.32 8 5 C7.13375 4.319375 7.13375 4.319375 6.25 3.625 C4.2199667 2.15886484 2.26460157 1.05142216 0 0 Z " fill="#87CE67" transform="translate(235,212)"/>
<path d="M0 0 C0.33 0 0.66 0 1 0 C1.24042276 4.08718695 0.42258812 7.17679443 -1 11 C-1.66 11 -2.32 11 -3 11 C-2.44894091 7.0507432 -1.61064629 3.65079826 0 0 Z " fill="#88CF66" transform="translate(136,197)"/>
<path d="M0 0 C2.91387197 0.2913872 3.82565583 0.79452294 5.75 3.0625 C6.1625 3.701875 6.575 4.34125 7 5 C5.68 5 4.36 5 3 5 C3 4.01 3 3.02 3 2 C1.68 1.67 0.36 1.34 -1 1 C-0.67 0.67 -0.34 0.34 0 0 Z " fill="#76B556" transform="translate(220,128)"/>
</svg>
